<?xml version="1.0" encoding="UTF-8"?>
<svg id="Calque_1" data-name="Calque 1" xmlns="http://www.w3.org/2000/svg" viewBox="0 0 1200 1200">
  <defs>
    <style>
      .cls-1 {
        fill: #f15a24;
      }
    </style>
  </defs>
  <path class="cls-1" d="M816.75,925.8l-.74-.79-5.81-8.29s-12.55-5.06-20.62-14.29c-.42-.42-10.39-10.75-10.39-10.75,0,0-8.6.7-14.08,5.34-.63.53-7.07,3.43-7.07,3.43,0,0-5.06,1.53-7.86-.74-.47,0-17.14-2.21-20.2-9.91-.42-.63-2.18-23.17-2.18-23.17l-8.17-6.7-7.97-25.78-7.33-24.3-4.43-18.5-5.86-27.09-4.69-19.08-6.28-31-2.9-17.24-5.98-40.49-2.13-17.45-1.26-28.56,10.62-38.14s-6.63-18.97-2.59-26.85c.38-.87,2.88-9.44,2.01-11.66s6.75-1.53,6.75-1.53c0,0,8.26.66,11.05-.49l1.95-1.93.06-6.63,14.03-20.25,1.24-2.09-2.52-19.26-6.44-23.01,9.68-7.2,7.04-8.52.6-1.87-.3-9.8,5.29-9.16,1.02-3.28.43-6.01s.17-3.35-3.62-7.52c-1.41-1.58-10.53-19.18-10.53-19.18l-4.31-7.93,20.17-26.16,2.43-4.77.6-2.47v-7.12l-10.62-14.36,11.09-15.55-1.71-13.5,7.97-.9-.04-6.99-17.48-13.16-.64-.98,3.37-13.51-4.35-6.77.04-23.99-1.15-4.13-2.77-2h-2.05l-3.2,2.68-19.77-2.77-6.01-9.24-5.8-7.46-5.76-4.09h-4.18l-13.32,13.72-11.73,14.1-1.66,3.37-1.71,4.86.04,2.47-.04.81h-2.43c.39.41.71.88.9,1.4,1.83.88,3,2.59,3.64,4.49.61,1.8.89,3.81,1.07,5.7.18,1.98.14,4.12-.71,5.95-.99,2.12-3.32,3.18-5.6,3.1-1.4-.04-2.64-.53-3.93-1.01-.99-.37-2.06-.67-2.67-1.61-.61-.94-.78-2.12-.88-3.21-.14-1.46-.2-2.93-.1-4.39.06-.97.2-1.91.48-2.82-.02-.88.17-2.78,1.1-3.39-.03-.71.5-2.18.54-2.89l-1.99,2.26-1.79,2.34-16.4,3.13-4.09-.04-8.23,3.37-9.21,4.94-6.57,3.41-10.06,4.99-13.3,5.8-14.16,6.6-6.61,3.32-8.23,4.94-5.03,3.41-3.37,2.51-2.47,2.43-2.47,1.79-2.56,3.2-2.52,4.13-1.54,5.03-.85,3.28,1.28,15.91,1.95,7.16,2.52,9.33,2.43,9.12.81,3.37.94,6.82,4.25,11.52.84,4.25.64,3.54.84,4.82.97,3.6.84,11.71-1.68,4.6-.05,4.82-2.45,4.18-3.36,6.73-.77.8-1.7,4.07-.8,1.76-.85,2.42-.88,1.73-1.65,4.15-2.45,5.67-.85,3.43-1.62,3.27-1.68,4.21-.83,2.5-1.65,3.35-.85,1.68-.8,3.3-.83,7.4-.8,5.14-.91,11.47-.77,7.4-.83,2.56-.85,5.86-.05,7.24-.03,21,2.17,14.12.62,7.39.76,3.31.83,4.07,1.11,6.76.48,4.07,1.38,9.66.9,10.84.9,13.87.69,14.56.14,6.49-.14,14.29-.69,4.56-.83,10.01-1.38,9.11-1.31,7.87-2.21,15.95-2.07,12.36-2.97,15.88-2.83,15.74-3.66,16.29-2.07,11.32-2.14,9.94-2.97,12.77-11.68,48.22-25.72,39.28-7.49,23.96s-2.23,5.67-4.74,6.13c-2.51.46-.12-1.56-.12-1.56l-11.16,3.44-11.62,4.27-6.79,2.42-13.2,5.76-3.72,1.21h-20.83l-1.21,1.39-.84,4.55,2.2,12.16-1.12,4.99-.1,6.62-.73,4.21,1.63,3.09,11.14,5.2,1.91-.56,3.31,3.03,9.46,4.85,9.14,1.28,5.57-.57.52,2.97,12.02.28,4.26-2.01,3.65,2.13,4.55,1.57,8.7,1.46,8.26.73,7.36,1.35,5.22,1.35,7.97,1.96,16.96.22,11.12,1.52,28.42,2.28,8.64-.58,7.73-.54,13.17-.92,2.31.68,1.86-.24-.35,6.1,10.17.37,7.27-.26,3.18-1.21,4.61,3.49,7.69.92,5.71.69,8.48,1.38,13.23-.08h36.96l4.36-.14,3.96-.84,6.15-.99,5.24-.67,3.87-.09,3.71,2.37,4.78-5.68,2.03-2.33h8.86l1.24-.03,19.4.06,3.52-2.02,3.92-.29,3.35-2.45,7.83-1,5.86-1.66,2.61-.5,2.39-1.37,4.94-.12,6.77,1.75,15.14,3.57,11.42-9.51,6.12-2.33,5.9-3.31,8.56-4.81,8.87-5.55,1.47-7.11.82-2.82v-16.6l-6.24-4.16-.03-.04h0ZM641.53,405.4c-.48.67-1.19,1.05-1.9,1.44-.98.54-1.9,1.18-2.87,1.73-1.74,1-3.62,1.73-5.32,2.79-1.42.89-3.27,1.81-4.85.71-.06-.04-.12-.1-.18-.15-.39-.02-.78-.18-1.06-.46-.45-.43-.58-1.1-.56-1.7.01-.46.09-.93.23-1.36,0-.02.02-.03.03-.05v-.09c.13-1.69,1.06-3.26,2.22-4.45.74-.76,1.63-1.33,2.47-1.98.71-.55,1.39-1.14,2.08-1.72.75-.64,1.59-1.49,2.55-1.95.32-.34.68-.64,1.18-.72.8-.13,1.51.3,2.12.76,1.14.86,2.53,1.57,3.46,2.67,1.05,1.23,1.37,3.16.39,4.53h.01ZM646.15,398.74c-.04-.62,0-.5-.01-1.08-.04-1.64-.05-.83,0-2.48v-2.02c-.04-.75.19-2.76.04-3.63l-.08-.98c0-1.37.08-2.56.03-3.93-.02-.63-.09-.69.01-1.32.1-.66.05-1.74.03-2.47,0-.3.17-.57.28-.85-.08-.91.37-.19.53-1.06.12-.65-.09-2.87.03-3.29.13-.42.76.35.79-.14.07-1.37-.57-2.72-.25-4.05.3-1.26-.1-3.58.08-4.88.02-.14.54.05.76-.07-.03-.51-.05-2,.03-2.51.1-.64.6-1.07.81-1.66.24-.7.16-1.57.33-2.29.02-.1.46-.06.48-.16.11-2.99-.33-3.04.78-5.03.52-.94-1.14-5.33-.74-6.32.14-.28.18-.75.18-.77.03-.16.2-.34.27-.45.1-.26.42-.49.5-.75.51-1.73,1.86-.79.54-4.66.97-.05,0-.93-.48-.68,0,0,.29,3.34.34,5,0,.38.07,1.3.07,1.66,0,2.37.12,3.75.53,6.09.19,1.12,0,2.17.05,3.32.04,1.25-.17,2.52-.12,3.77,0,.02.17,2.13.17,2.15.35,2.14.67,1.99.74,3.87.1,2.7.3,7.1.84,9.74.53,2.63.84,3.11.84,5.83,0,2.49-.18,4.73-.24,7.21.47,2.15.26,4.98.26,7.09,0,3.8.02,7.48.31,11.27.28,3.69,1.84,7.37,2.67,10.9.69,2.96.39,6.02,1.21,9.21.08.32.53.64.51.9.05.2.07.05.12.25.02.03.07.12.08.16.64,1.29.59,2.52.56,3.95,0,.61.26,1-.03,1.27-.41.39-.04-.02-.21-.51-.22-.63.07-1.49-.14-2.11-.11-.31-.22-.64-.35-.95-.02-.06-.04-.11-.06-.17-.01-.03-.04-.08-.05-.11s-.03-.06-.05-.1c-.14-.11-.26-.25-.32-.46-.2-.66-.34-1.33-.48-1.99-1.48-1.98-2.36-4.32-3.5-6.5-.64-1.22-1.16-2.48-1.78-3.71-.58-1.14-1.34-2.18-2.08-3.23-.17-.24-.21-.48-.16-.69-.68-.94-1.37-1.87-2.03-2.82-.68-.97-1.28-1.98-1.99-2.92-.65-.87-1.34-1.79-1.61-2.87-.29-1.17.01-2.39-.21-3.57-.07-.36-.08-.64.11-.86-.15-.48,1.72-.55,1.5-1-.27-.55-.48-1.18-.47-1.26"/>
</svg>